<?xml version="1.0" standalone="no"?><!DOCTYPE svg PUBLIC "-//W3C//DTD SVG 1.1//EN" "http://www.w3.org/Graphics/SVG/1.1/DTD/svg11.dtd"><svg t="1600594683233" class="icon" viewBox="0 0 1024 1024" version="1.1" xmlns="http://www.w3.org/2000/svg" p-id="7169" xmlns:xlink="http://www.w3.org/1999/xlink" width="200" height="200"><defs><style type="text/css"></style></defs><path d="M429.843103 1024a21.332916 21.332916 0 0 1-15.103704-6.250544L6.299398 609.032126a21.332916 21.332916 0 0 1 0-30.164742L579.002849 6.270597c4.522578-4.501245 10.90112-6.8052 17.172997-6.143879L972.616474 37.181992a21.332916 21.332916 0 0 1 19.156958 19.39162l32.170037 371.427393a21.332916 21.332916 0 0 1-6.165213 16.917002L444.925474 1017.749456a21.268917 21.268917 0 0 1-15.082371 6.250544zM51.567844 593.949755l378.275259 378.552587L980.573651 421.771794 950.771568 77.906528 602.042398 43.581867 51.567844 593.949755z" p-id="7170"></path><path d="M779.681586 348.365231a103.229978 103.229978 0 0 1-73.619892-30.570068c-40.53254-40.404542-40.553872-106.451249-0.021333-147.175784 19.690281-19.668948 45.823103-30.484736 73.641225-30.484737s53.950943 10.815788 73.598558 30.442071a103.507306 103.507306 0 0 1 30.570068 73.918552 103.037982 103.037982 0 0 1-30.591401 73.38523 103.336643 103.336643 0 0 1-73.577225 30.484736z m0-165.564758a61.012139 61.012139 0 0 0-43.433817 17.962315 61.524128 61.524128 0 0 0-0.021332 86.867633c23.252878 23.33821 63.678753 23.295544 86.888965 0.042665a60.606813 60.606813 0 0 0 18.068979-43.263152 61.225468 61.225468 0 0 0-18.047646-43.668479 61.118803 61.118803 0 0 0-43.455149-17.940982z" p-id="7171"></path></svg>